<?xml version="1.0" standalone="no"?>
<!DOCTYPE svg PUBLIC "-//W3C//DTD SVG 20010904//EN"
 "http://www.w3.org/TR/2001/REC-SVG-20010904/DTD/svg10.dtd">
<svg version="1.0" xmlns="http://www.w3.org/2000/svg"
 width="1024.000000pt" height="1024.000000pt" viewBox="0 0 1024.000000 1024.000000"
 preserveAspectRatio="xMidYMid meet">

<g transform="translate(0.000000,1024.000000) scale(0.100000,-0.100000)"
fill="#000000" stroke="none">
<path d="M0 5120 l0 -5120 5120 0 5120 0 0 5120 0 5120 -5120 0 -5120 0 0
-5120z m4513 957 c40 -20 83 -47 96 -61 l23 -25 -52 -60 -53 -60 -32 25 c-113
85 -280 66 -362 -44 -96 -127 -61 -320 73 -398 61 -36 164 -44 229 -20 l45 18
0 64 0 64 -80 0 -80 0 0 75 0 75 160 0 160 0 0 -184 0 -185 -29 -21 c-77 -54
-142 -74 -252 -78 -123 -5 -195 11 -271 60 -98 62 -169 175 -190 302 -27 163
57 355 189 433 83 48 148 64 255 60 88 -4 105 -7 171 -40z m1459 0 c269 -133
322 -499 101 -708 -64 -61 -136 -95 -226 -108 -224 -32 -426 95 -482 303 -27
100 -18 222 25 314 51 112 159 202 276 231 22 6 82 9 135 8 88 -2 102 -6 171
-40z m-1012 -309 l0 -338 180 0 180 0 0 -80 0 -80 -265 0 -265 0 0 420 0 421
86 -3 85 -3 -1 -337z m1847 313 c103 -46 156 -131 157 -251 0 -65 -4 -82 -29
-130 -21 -38 -44 -64 -77 -85 -26 -16 -47 -33 -47 -37 -1 -3 23 -48 52 -100
30 -51 68 -119 86 -150 l32 -58 -98 0 -98 0 -74 140 -74 140 -68 0 -69 0 0
-140 0 -140 -85 0 -85 0 0 421 0 420 213 -3 c198 -3 215 -5 264 -27z m483
-391 l0 -421 -87 3 -88 3 -3 418 -2 417 90 0 90 0 0 -420z m767 5 c84 -225
152 -413 153 -417 0 -5 -42 -8 -93 -8 l-92 0 -29 80 -28 80 -167 0 -167 0 -25
-77 -25 -78 -92 -3 c-51 -1 -92 0 -92 4 0 4 66 183 146 398 81 215 151 401
155 414 8 22 13 23 106 20 l98 -3 152 -410z m515 288 c33 -71 85 -180 115
-243 l55 -115 23 45 c13 25 65 134 116 243 l93 197 98 0 98 0 0 -420 0 -420
-85 0 -85 0 -1 278 0 277 -99 -202 -98 -203 -59 0 -59 0 -94 198 c-51 108 -97
201 -102 207 -4 5 -8 -118 -8 -273 l0 -282 -85 0 -85 0 0 420 0 420 101 0 100
0 61 -127z m-5489 -632 c179 -47 269 -135 297 -292 45 -242 -119 -653 -346
-869 -42 -41 -52 -40 -17 2 26 29 90 191 113 282 26 103 30 260 10 346 -41
179 -145 270 -347 305 -187 33 -427 7 -641 -69 -58 -21 -82 -9 -82 40 0 29 9
44 53 87 88 88 238 153 421 183 125 21 438 12 539 -15z m1195 -400 c20 -10 45
-27 54 -37 16 -18 15 -21 -11 -53 l-28 -34 -30 22 c-81 61 -196 39 -246 -47
-24 -41 -33 -129 -17 -176 25 -77 88 -126 162 -126 43 0 120 29 132 49 4 6 11
11 16 11 13 0 52 -68 45 -80 -3 -5 -27 -22 -53 -37 -42 -25 -57 -28 -137 -28
-101 0 -144 17 -202 77 -51 53 -73 112 -73 199 0 65 4 85 31 138 35 69 77 106
152 133 63 22 149 18 205 -11z m565 1 c94 -42 149 -125 155 -237 5 -88 -9
-142 -51 -197 -73 -95 -199 -132 -317 -93 -112 37 -186 157 -177 285 9 130 89
229 212 261 45 12 128 3 178 -19z m1175 -1 c56 -28 59 -38 25 -72 l-29 -29
-51 22 c-48 20 -54 20 -90 7 -30 -12 -39 -21 -41 -43 -5 -39 19 -61 102 -93
44 -18 87 -43 113 -69 40 -38 43 -44 43 -96 0 -69 -28 -114 -90 -145 -80 -41
-207 -23 -265 37 l-28 29 24 30 c28 34 41 38 60 14 56 -67 199 -49 199 26 0
37 -18 51 -120 98 -106 49 -140 85 -140 149 0 74 35 123 107 150 49 18 129 12
181 -15z m2976 -10 c28 -15 51 -32 53 -37 2 -5 -9 -25 -25 -43 l-28 -33 -38
26 c-21 14 -48 27 -60 27 -125 9 -206 -64 -206 -186 0 -127 90 -208 211 -192
57 7 69 21 69 78 l0 49 -55 0 -55 0 0 43 0 42 105 -3 105 -3 0 -109 c0 -108 0
-108 -30 -133 -51 -43 -111 -60 -192 -55 -89 6 -141 30 -195 92 -113 129 -78
343 71 435 77 48 187 48 270 2z m-3637 -168 l128 -197 3 197 2 197 45 0 45 0
0 -275 0 -275 -48 0 -49 0 -131 198 -132 197 0 -197 0 -198 -47 0 -48 0 2 272
c2 150 3 274 3 276 0 1 22 2 49 2 l49 0 129 -197z m953 25 c1 -259 12 -288
119 -296 58 -4 62 -3 96 31 l35 35 0 201 0 201 50 0 50 0 0 -192 c0 -212 -7
-252 -51 -302 -84 -96 -295 -84 -360 20 -23 38 -24 47 -27 257 l-3 217 45 0
46 0 0 -172z m604 156 c14 -13 16 -48 16 -230 l0 -214 120 0 120 0 0 -29 c0
-62 3 -61 -176 -61 l-164 0 0 275 0 275 34 0 c19 0 42 -7 50 -16z m677 -29
c-1 -22 -8 -43 -14 -47 -7 -4 -45 -8 -84 -8 l-73 0 0 -225 0 -225 -45 0 -45 0
0 225 0 225 -85 0 -85 0 0 28 c0 15 -3 37 -6 50 l-6 22 223 -2 224 -3 -4 -40z
m221 -230 l3 -275 -47 0 -48 0 0 275 0 275 45 0 44 0 3 -275z m415 78 l128
-197 5 195 5 194 43 3 42 3 0 -275 0 -276 -49 0 -49 0 -131 198 -131 197 0
-197 0 -198 -45 0 -45 0 0 275 0 275 49 0 49 0 129 -197z m-3766 -655 c-23
-18 -41 -23 -41 -12 0 12 45 42 54 36 5 -3 -1 -13 -13 -24z m-529 -123 c2 -71
0 -95 -9 -95 -10 0 -13 26 -13 95 0 52 4 95 9 95 5 0 11 -43 13 -95z m125 23
l48 -71 3 71 c4 107 22 88 22 -23 0 -69 -3 -95 -12 -95 -7 0 -34 33 -60 73
l-48 72 0 -72 c0 -58 -3 -73 -15 -73 -12 0 -15 17 -15 95 0 119 11 123 77 23z
m258 59 c13 -11 15 -16 6 -22 -7 -4 -18 -2 -24 4 -32 32 -97 -13 -97 -68 0
-37 26 -71 55 -71 39 0 55 11 55 36 0 19 -5 24 -25 24 -14 0 -25 5 -25 10 0 6
16 10 35 10 34 0 35 -1 35 -40 0 -45 -18 -60 -71 -60 -51 0 -79 33 -79 92 0
39 5 54 25 73 27 28 80 33 110 12z m185 3 c0 -5 -20 -10 -45 -10 -43 0 -45 -1
-45 -30 0 -28 3 -30 35 -30 22 0 35 -5 35 -13 0 -9 -11 -12 -35 -9 -34 4 -35
3 -35 -32 0 -36 0 -36 44 -36 25 0 48 -4 51 -10 4 -6 -18 -10 -58 -10 l-65 0
1 95 0 95 59 0 c32 0 58 -4 58 -10z m117 -62 l48 -71 3 71 c4 107 22 88 22
-23 0 -56 -4 -95 -10 -95 -5 0 -31 32 -57 72 l-48 71 -3 -71 c-2 -48 -7 -72
-15 -72 -9 0 -11 26 -9 95 2 52 8 95 13 95 5 0 30 -32 56 -72z m153 -23 c0
-57 -4 -95 -10 -95 -6 0 -10 38 -10 95 0 57 4 95 10 95 6 0 10 -38 10 -95z
m170 85 c0 -5 -20 -10 -45 -10 -43 0 -45 -1 -45 -30 0 -28 3 -30 35 -30 19 0
35 -4 35 -10 0 -5 -16 -10 -35 -10 -33 0 -35 -2 -35 -35 l0 -35 50 0 c28 0 50
-4 50 -10 0 -6 -27 -10 -60 -10 l-60 0 0 95 0 95 55 0 c30 0 55 -4 55 -10z
m162 -7 c25 -22 23 -68 -3 -87 l-21 -15 21 -29 c24 -35 26 -42 8 -42 -7 0 -21
16 -31 35 -13 23 -26 35 -41 35 -18 0 -20 -5 -17 -35 3 -27 1 -35 -12 -35 -14
0 -16 14 -16 95 l0 95 47 0 c29 0 53 -6 65 -17z m98 -78 c0 -78 -3 -95 -15
-95 -12 0 -15 17 -15 95 0 78 3 95 15 95 12 0 15 -17 15 -95z m170 86 c0 -6
-21 -11 -47 -13 -43 -3 -46 -5 -48 -30 -1 -26 2 -28 37 -28 49 0 50 -18 1 -22
-34 -3 -37 -6 -37 -33 0 -29 2 -30 47 -33 68 -4 58 -22 -13 -22 l-60 0 0 95 0
95 60 0 c33 0 60 -4 60 -9z m233 -2 c28 -12 47 -47 47 -84 0 -62 -39 -95 -110
-95 l-40 0 0 95 0 95 40 0 c21 0 50 -5 63 -11z m127 -84 c0 -78 -3 -95 -15
-95 -12 0 -15 17 -15 95 0 78 3 95 15 95 12 0 15 -17 15 -95z m185 82 c24 -18
3 -32 -23 -16 -60 37 -120 -57 -76 -119 16 -24 62 -30 81 -11 18 18 3 49 -23
49 -13 0 -24 5 -24 10 0 6 18 10 40 10 40 0 40 0 40 -40 0 -45 -18 -60 -71
-60 -51 0 -79 33 -79 92 0 39 5 54 25 73 27 28 80 33 110 12z m95 -82 c0 -78
-3 -95 -15 -95 -12 0 -15 17 -15 95 0 78 3 95 15 95 12 0 15 -17 15 -95z m180
85 c0 -5 -13 -10 -30 -10 l-30 0 0 -85 c0 -50 -4 -85 -10 -85 -6 0 -10 35 -10
85 l0 85 -30 0 c-16 0 -30 5 -30 10 0 6 30 10 70 10 40 0 70 -4 70 -10z m108
-17 c6 -16 22 -58 36 -95 21 -55 23 -68 11 -68 -8 0 -17 11 -21 25 -5 22 -12
25 -50 25 -38 0 -44 -3 -50 -25 -3 -14 -13 -25 -21 -25 -8 0 -13 6 -10 13 3 6
20 49 38 95 17 45 38 82 45 82 6 0 17 -12 22 -27z m124 -58 l-3 -85 45 0 c25
0 48 -4 51 -10 4 -6 -17 -10 -54 -10 l-61 0 0 95 c0 69 3 95 13 95 9 0 11 -22
9 -85z m258 75 c0 -5 -22 -10 -50 -10 -49 0 -50 -1 -50 -29 0 -27 3 -30 38
-33 43 -4 41 -21 -3 -22 -26 -1 -30 -5 -33 -33 l-3 -33 50 0 c28 0 51 -4 51
-10 0 -6 -27 -10 -60 -10 l-60 0 0 95 0 95 60 0 c33 0 60 -4 60 -10z m228 -2
c19 -19 14 -45 -10 -62 l-22 -16 23 -22 c16 -16 25 -19 28 -10 5 13 33 17 33
4 0 -4 -5 -13 -12 -20 -8 -8 -8 -15 0 -25 16 -18 4 -29 -19 -17 -12 7 -20 7
-24 0 -3 -5 -24 -10 -46 -10 -32 0 -41 4 -51 25 -12 27 2 75 21 75 6 0 7 16 4
36 -4 25 -2 39 8 45 20 12 53 11 67 -3z m302 -8 c40 -40 17 -88 -48 -97 -40
-5 -42 -7 -42 -39 0 -24 -5 -34 -15 -34 -12 0 -15 17 -15 95 l0 95 50 0 c37 0
55 -5 70 -20z m180 10 c0 -5 -20 -10 -45 -10 -43 0 -45 -1 -45 -30 0 -28 3
-30 35 -30 22 0 35 -5 35 -13 0 -9 -11 -12 -35 -9 -34 4 -35 3 -35 -32 l0 -36
45 0 c25 0 45 -4 45 -10 0 -6 -27 -10 -60 -10 l-60 0 0 95 0 95 60 0 c33 0 60
-4 60 -10z m160 -10 c26 -26 25 -55 -1 -81 l-20 -20 20 -35 c17 -28 18 -34 6
-34 -9 0 -23 16 -32 35 -12 25 -23 35 -40 35 -20 0 -23 -5 -23 -35 0 -19 -4
-35 -10 -35 -6 0 -10 38 -10 95 l0 95 45 0 c32 0 51 -6 65 -20z m190 11 c0 -6
-21 -11 -47 -13 -46 -3 -48 -4 -48 -32 0 -27 3 -30 34 -30 19 -1 36 -7 38 -13
3 -9 -8 -13 -36 -13 l-41 0 0 -40 c0 -22 -4 -40 -10 -40 -6 0 -10 38 -10 95
l0 95 60 0 c33 0 60 -4 60 -9z m155 3 c21 -8 45 -56 45 -89 0 -33 -24 -81 -45
-89 -9 -3 -32 -6 -50 -6 -63 0 -96 81 -60 150 8 15 20 30 27 33 19 8 64 8 83
1z m203 -10 c29 -20 30 -68 2 -87 l-21 -14 22 -37 c18 -31 19 -36 5 -36 -9 0
-24 16 -33 35 -12 25 -23 35 -40 35 -20 0 -23 -5 -23 -35 0 -19 -4 -35 -10
-35 -6 0 -10 38 -10 95 l0 95 43 0 c23 0 53 -7 65 -16z m129 -45 l31 -62 32
62 c17 35 36 61 43 58 8 -2 13 -34 14 -95 1 -74 -1 -92 -13 -92 -11 0 -14 16
-14 73 l0 72 -25 -52 c-13 -29 -29 -53 -34 -53 -6 0 -22 23 -36 50 -14 28 -27
50 -28 50 -2 0 -3 -32 -3 -70 1 -50 -3 -70 -11 -70 -10 0 -13 26 -13 95 0 115
12 122 57 34z m294 -19 c42 -108 42 -110 26 -110 -8 0 -18 11 -21 25 -5 21
-12 25 -46 25 -33 0 -42 -4 -52 -25 -6 -14 -17 -25 -23 -25 -8 0 0 33 24 95
23 62 41 94 50 93 7 -2 27 -37 42 -78z m151 7 l48 -72 0 73 c0 57 3 72 15 72
12 0 15 -17 15 -95 0 -118 -11 -122 -72 -25 -24 38 -47 69 -51 70 -5 0 -7 -32
-5 -70 2 -51 0 -70 -9 -70 -10 0 -13 26 -13 95 0 69 3 95 13 95 6 0 33 -33 59
-73z m259 63 c10 -6 19 -17 19 -25 0 -19 -14 -19 -30 0 -13 16 -48 20 -66 7
-34 -22 -41 -94 -13 -129 14 -16 53 -17 81 -2 27 14 38 1 14 -17 -34 -24 -91
-18 -115 12 -31 39 -29 107 4 139 26 27 72 33 106 15z m179 0 c0 -5 -20 -10
-45 -10 -43 0 -45 -1 -45 -30 0 -28 3 -30 35 -30 19 0 35 -4 35 -10 0 -5 -16
-10 -35 -10 -33 0 -35 -2 -35 -35 0 -35 0 -35 44 -35 25 0 48 -4 51 -10 4 -6
-18 -10 -59 -10 l-66 0 0 95 0 95 60 0 c33 0 60 -4 60 -10z"/>
<path d="M5710 5941 c-108 -35 -167 -112 -177 -229 -7 -92 21 -166 84 -222 52
-45 94 -60 173 -60 166 1 278 171 226 344 -31 102 -112 166 -219 172 -34 2
-73 0 -87 -5z"/>
<path d="M6500 5830 l0 -120 98 0 c142 0 191 31 192 121 0 44 -30 86 -76 105
-20 8 -70 14 -124 14 l-90 0 0 -120z"/>
<path d="M7749 5741 l-56 -156 110 -3 c60 -1 111 -1 113 0 1 2 -23 73 -54 159
l-57 156 -56 -156z"/>
<path d="M4695 4883 c-74 -18 -125 -75 -139 -154 -9 -52 11 -134 42 -171 76
-91 229 -72 281 35 38 79 20 200 -37 250 -38 34 -101 51 -147 40z"/>
<path d="M5019 4065 c-3 -2 -3 -20 -1 -40 3 -27 9 -35 24 -35 48 0 75 39 46
68 -12 12 -60 17 -69 7z"/>
<path d="M5530 3995 c0 -71 1 -75 23 -75 43 0 67 27 67 75 0 48 -24 75 -67 75
-22 0 -23 -4 -23 -75z"/>
<path d="M6260 4024 c-6 -16 -13 -35 -15 -41 -3 -9 7 -13 30 -13 l35 0 -15 37
c-21 49 -23 50 -35 17z"/>
<path d="M6853 4054 c-3 -8 -1 -20 5 -26 15 -15 43 8 35 28 -7 19 -32 18 -40
-2z"/>
<path d="M6842 3981 c-22 -14 -10 -56 17 -59 13 -2 28 1 34 7 16 16 -33 64
-51 52z"/>
<path d="M7120 4030 c0 -40 1 -41 31 -38 39 4 59 30 43 56 -6 9 -25 18 -43 20
-30 3 -31 2 -31 -38z"/>
<path d="M7460 4030 c0 -36 3 -40 24 -40 41 0 56 11 56 40 0 29 -15 40 -56 40
-21 0 -24 -4 -24 -40z"/>
<path d="M7818 4053 c-22 -26 -28 -60 -16 -93 19 -55 89 -53 107 3 17 52 -11
107 -54 107 -12 0 -29 -8 -37 -17z"/>
<path d="M8010 4030 c0 -38 2 -40 29 -40 26 0 61 21 61 36 0 25 -25 44 -55 44
-34 0 -35 -1 -35 -40z"/>
<path d="M8461 4019 c-16 -46 -14 -49 19 -49 17 0 30 2 30 4 0 8 -31 76 -34
76 -2 0 -9 -14 -15 -31z"/>
</g>
</svg>
